<svg xmlns="http://www.w3.org/2000/svg" xmlns:xlink="http://www.w3.org/1999/xlink" viewBox="0,0,256,256" width="100px" height="100px" fill-rule="nonzero"><g transform="translate(26.66667,26.66667) scale(0.79167,0.79167)"><g fill="#212121" fill-rule="nonzero" stroke="none" stroke-width="1" stroke-linecap="butt" stroke-linejoin="miter" stroke-miterlimit="10" stroke-dasharray="" stroke-dashoffset="0" font-family="none" font-weight="none" font-size="none" text-anchor="none" style="mix-blend-mode: normal"><path d="M-33.68421,289.68421v-323.36842h323.36842v323.36842z" id="bgRectangle"></path></g><g fill="none" fill-rule="nonzero" stroke="none" stroke-width="1" stroke-linecap="butt" stroke-linejoin="miter" stroke-miterlimit="10" stroke-dasharray="" stroke-dashoffset="0" font-family="none" font-weight="none" font-size="none" text-anchor="none" style="mix-blend-mode: normal"><g transform="scale(5.33333,5.33333)"><path d="M41,5h-34l3,34l14,4l14,-4l3,-34z" fill="#0277bd"></path><path d="M24,8v31.9l11.2,-3.2l2.5,-28.7z" fill="#039be5"></path><path d="M33.1,13h-9.1v4h4.9l-0.3,4h-4.6v4h4.4l-0.3,4.5l-4.1,1.4v4.2l7.9,-2.6l0.7,-11.5v0z" fill="#ffffff"></path><path d="M24,13v4h-8.9l-0.3,-4zM19.4,21l0.2,4h4.4v-4zM19.8,27h-4l0.3,5.5l7.9,2.6v-4.2l-4.1,-1.4z" fill="#eeeeee"></path></g></g><g fill="#ffffff" fill-rule="nonzero" stroke="none" stroke-width="1" stroke-linecap="butt" stroke-linejoin="miter" stroke-miterlimit="10" stroke-dasharray="" stroke-dashoffset="0" font-family="none" font-weight="none" font-size="none" text-anchor="none" style="mix-blend-mode: normal"><g><path d="M115.47,251.16h3.91c-0.15333,2.04 -0.90667,3.64667 -2.26,4.82c-1.36,1.17333 -3.15,1.76 -5.37,1.76v0c-2.43333,0 -4.34667,-0.82 -5.74,-2.46c-1.39333,-1.63333 -2.09,-3.88 -2.09,-6.74v0v-1.15c0,-1.82667 0.32,-3.43333 0.96,-4.82c0.64667,-1.39333 1.56667,-2.46 2.76,-3.2c1.19333,-0.74 2.58,-1.11 4.16,-1.11v0c2.18667,0 3.94667,0.58667 5.28,1.76c1.34,1.16667 2.11333,2.81 2.32,4.93v0h-3.9c-0.1,-1.22667 -0.44333,-2.11333 -1.03,-2.66c-0.58667,-0.55333 -1.47667,-0.83 -2.67,-0.83v0c-1.30667,0 -2.28333,0.46667 -2.93,1.4c-0.64667,0.93333 -0.97667,2.38 -0.99,4.34v0v1.44c0,2.04667 0.31,3.54333 0.93,4.49c0.62,0.94667 1.6,1.42 2.94,1.42v0c1.20667,0 2.10667,-0.27667 2.7,-0.83c0.59333,-0.55333 0.93333,-1.40667 1.02,-2.56zM131.77,252.5v0c0,-0.73333 -0.26,-1.3 -0.78,-1.7c-0.52,-0.39333 -1.45667,-0.81 -2.81,-1.25c-1.35333,-0.43333 -2.42667,-0.86333 -3.22,-1.29v0c-2.15333,-1.16667 -3.23,-2.73333 -3.23,-4.7v0c0,-1.02667 0.29,-1.94 0.87,-2.74c0.57333,-0.80667 1.40333,-1.43333 2.49,-1.88c1.08,-0.45333 2.29,-0.68 3.63,-0.68v0c1.36,0 2.56667,0.24333 3.62,0.73c1.06,0.49333 1.88333,1.18667 2.47,2.08c0.58667,0.89333 0.88,1.91 0.88,3.05v0h-3.91c0,-0.86667 -0.27333,-1.54333 -0.82,-2.03c-0.54667,-0.48 -1.31333,-0.72 -2.3,-0.72v0c-0.95333,0 -1.69667,0.20333 -2.23,0.61c-0.52667,0.4 -0.79,0.93 -0.79,1.59v0c0,0.61333 0.31,1.13 0.93,1.55c0.62,0.41333 1.53333,0.80333 2.74,1.17v0c2.22,0.66667 3.84,1.49667 4.86,2.49c1.01333,0.98667 1.52,2.22 1.52,3.7v0c0,1.64 -0.62,2.92667 -1.86,3.86c-1.24,0.93333 -2.91,1.4 -5.01,1.4v0c-1.46,0 -2.79,-0.26667 -3.99,-0.8c-1.2,-0.53333 -2.11333,-1.26667 -2.74,-2.2c-0.62667,-0.92667 -0.94,-2.00333 -0.94,-3.23v0h3.92c0,2.09333 1.25,3.14 3.75,3.14v0c0.92667,0 1.65,-0.19 2.17,-0.57c0.52,-0.37333 0.78,-0.9 0.78,-1.58zM148.16,252.5v0c0,-0.73333 -0.26,-1.3 -0.78,-1.7c-0.52,-0.39333 -1.45667,-0.81 -2.81,-1.25c-1.35333,-0.43333 -2.42667,-0.86333 -3.22,-1.29v0c-2.14667,-1.16667 -3.22,-2.73333 -3.22,-4.7v0c0,-1.02667 0.28667,-1.94 0.86,-2.74c0.58,-0.80667 1.41,-1.43333 2.49,-1.88c1.08,-0.45333 2.29333,-0.68 3.64,-0.68v0c1.35333,0 2.56,0.24333 3.62,0.73c1.06,0.49333 1.88,1.18667 2.46,2.08c0.58667,0.89333 0.88,1.91 0.88,3.05v0h-3.9c0,-0.86667 -0.27333,-1.54333 -0.82,-2.03c-0.54667,-0.48 -1.31667,-0.72 -2.31,-0.72v0c-0.95333,0 -1.69333,0.20333 -2.22,0.61c-0.53333,0.4 -0.8,0.93 -0.8,1.59v0c0,0.61333 0.31,1.13 0.93,1.55c0.62,0.41333 1.53333,0.80333 2.74,1.17v0c2.22667,0.66667 3.84667,1.49667 4.86,2.49c1.01333,0.98667 1.52,2.22 1.52,3.7v0c0,1.64 -0.62,2.92667 -1.86,3.86c-1.24,0.93333 -2.91,1.4 -5.01,1.4v0c-1.46,0 -2.79,-0.26667 -3.99,-0.8c-1.19333,-0.53333 -2.10667,-1.26667 -2.74,-2.2c-0.62667,-0.92667 -0.94,-2.00333 -0.94,-3.23v0h3.92c0,2.09333 1.25,3.14 3.75,3.14v0c0.92667,0 1.65,-0.19 2.17,-0.57c0.52,-0.37333 0.78,-0.9 0.78,-1.58z"></path></g></g></g></svg>