<svg xmlns="http://www.w3.org/2000/svg" xmlns:xlink="http://www.w3.org/1999/xlink" viewBox="0,0,256,256" width="100px" height="100px" fill-rule="nonzero"><g transform="translate(39.68,39.68) scale(0.69,0.69)"><g fill="#212121" fill-rule="nonzero" stroke="none" stroke-width="1" stroke-linecap="butt" stroke-linejoin="miter" stroke-miterlimit="10" stroke-dasharray="" stroke-dashoffset="0" font-family="none" font-weight="none" font-size="none" text-anchor="none" style="mix-blend-mode: normal"><path d="M-57.50725,313.50725v-371.01449h371.01449v371.01449z" id="bgRectangle"></path></g><g fill="none" fill-rule="nonzero" stroke="none" stroke-width="1" stroke-linecap="butt" stroke-linejoin="miter" stroke-miterlimit="10" stroke-dasharray="" stroke-dashoffset="0" font-family="none" font-weight="none" font-size="none" text-anchor="none" style="mix-blend-mode: normal"><g transform="translate(-2.13333,-40) scale(5.33333,5.33333)"><path d="M33.5,10c-7.456,0 -13.5,6.044 -13.5,13.5c0,7.456 6.044,13.5 13.5,13.5c7.456,0 13.5,-6.044 13.5,-13.5c0,-7.456 -6.044,-13.5 -13.5,-13.5zM33.5,30c-3.59,0 -6.5,-2.91 -6.5,-6.5c0,-3.59 2.91,-6.5 6.5,-6.5c3.59,0 6.5,2.91 6.5,6.5c0,3.59 -2.91,6.5 -6.5,6.5z" fill="#ffb300"></path><path d="M19.14,28.051v-0.003c-1.18,1.204 -2.822,1.952 -4.64,1.952c-3.59,0 -6.5,-2.91 -6.5,-6.5c0,-3.59 2.91,-6.5 6.5,-6.5c1.83,0 3.481,0.759 4.662,1.976l3.75,-6.024c-2.308,-1.843 -5.229,-2.952 -8.412,-2.952c-7.456,0 -13.5,6.044 -13.5,13.5c0,7.456 6.044,13.5 13.5,13.5c3.164,0 6.067,-1.097 8.369,-2.919z" fill="#ffb300"></path><path d="M8,23.5c0,-1.787 0.722,-3.405 1.889,-4.58l-4.855,-5.038c-2.488,2.448 -4.034,5.851 -4.034,9.618c0,3.749 1.53,7.14 3.998,9.586l4.934,-4.964c-1.192,-1.178 -1.932,-2.813 -1.932,-4.622z" fill="#f57c00"></path><path d="M38.13,18.941c1.155,1.173 1.87,2.782 1.87,4.559c0,3.59 -2.91,6.5 -6.5,6.5c-1.826,0 -3.474,-0.755 -4.655,-1.968l-4.999,4.895c2.452,2.51 5.868,4.073 9.654,4.073c7.456,0 13.5,-6.044 13.5,-13.5c0,-3.684 -1.479,-7.019 -3.871,-9.455z" fill="#f57c00"></path></g></g><g fill="#f57c00" fill-rule="nonzero" stroke="none" stroke-width="1" stroke-linecap="butt" stroke-linejoin="miter" stroke-miterlimit="10" stroke-dasharray="" stroke-dashoffset="0" font-family="none" font-weight="none" font-size="none" text-anchor="none" style="mix-blend-mode: normal"><g><path d="M6.13833,211.59667v15.13c-1.40667,1.68667 -3.39667,2.99333 -5.97,3.92c-2.56667,0.92667 -5.41333,1.39 -8.54,1.39v0c-3.28,0 -6.15667,-0.71333 -8.63,-2.14c-2.47333,-1.43333 -4.38333,-3.51333 -5.73,-6.24c-1.34667,-2.72667 -2.03667,-5.93 -2.07,-9.61v0v-2.58c0,-3.78667 0.63667,-7.06333 1.91,-9.83c1.28,-2.76667 3.12,-4.88333 5.52,-6.35c2.40667,-1.46667 5.22333,-2.2 8.45,-2.2v0c4.5,0 8.01667,1.07 10.55,3.21c2.53333,2.14667 4.03667,5.26667 4.51,9.36v0h-7.61c-0.34667,-2.16667 -1.11333,-3.75333 -2.3,-4.76c-1.19333,-1.00667 -2.83,-1.51 -4.91,-1.51v0c-2.66,0 -4.68333,0.99667 -6.07,2.99c-1.38667,2 -2.09,4.97 -2.11,8.91v0v2.42c0,3.97333 0.75667,6.97667 2.27,9.01c1.50667,2.03333 3.72,3.05 6.64,3.05v0c2.93333,0 5.02333,-0.62667 6.27,-1.88v0v-6.53h-7.11v-5.76zM10.79833,217.50667v-0.34c0,-2.79333 0.53667,-5.28333 1.61,-7.47c1.08,-2.18667 2.63,-3.88 4.65,-5.08c2.02,-1.19333 4.36667,-1.79 7.04,-1.79v0c3.80667,0 6.91,1.16 9.31,3.48c2.40667,2.32667 3.75,5.48667 4.03,9.48v0l0.05,1.93c0,4.32667 -1.20667,7.79333 -3.62,10.4c-2.41333,2.61333 -5.65,3.92 -9.71,3.92c-4.06667,0 -7.31,-1.3 -9.73,-3.9c-2.42,-2.60667 -3.63,-6.15 -3.63,-10.63zM18.31833,217.71667v0c0,2.67333 0.50333,4.71667 1.51,6.13c1.00667,1.42 2.45,2.13 4.33,2.13v0c1.82,0 3.24333,-0.7 4.27,-2.1c1.02,-1.4 1.53,-3.63667 1.53,-6.71v0c0,-2.62 -0.51,-4.65 -1.53,-6.09c-1.02667,-1.44 -2.47,-2.16 -4.33,-2.16v0c-1.84,0 -3.26333,0.71667 -4.27,2.15c-1.00667,1.43333 -1.51,3.65 -1.51,6.65zM40.94833,217.50667v-0.34c0,-2.79333 0.54,-5.28333 1.62,-7.47c1.07333,-2.18667 2.62333,-3.88 4.65,-5.08c2.02,-1.19333 4.36667,-1.79 7.04,-1.79v0c3.8,0 6.90333,1.16 9.31,3.48c2.40667,2.32667 3.74667,5.48667 4.02,9.48v0l0.06,1.93c0,4.32667 -1.20667,7.79333 -3.62,10.4c-2.41333,2.61333 -5.65333,3.92 -9.72,3.92c-4.06,0 -7.3,-1.3 -9.72,-3.9c-2.42667,-2.60667 -3.64,-6.15 -3.64,-10.63zM48.47833,217.71667v0c0,2.67333 0.50333,4.71667 1.51,6.13c1.00667,1.42 2.44667,2.13 4.32,2.13v0c1.82667,0 3.25,-0.7 4.27,-2.1c1.02667,-1.4 1.54,-3.63667 1.54,-6.71v0c0,-2.62 -0.51333,-4.65 -1.54,-6.09c-1.02,-1.44 -2.46,-2.16 -4.32,-2.16v0c-1.84,0 -3.26333,0.71667 -4.27,2.15c-1.00667,1.43333 -1.51,3.65 -1.51,6.65zM71.18833,217.53667v-0.31c0,-4.32667 1.02667,-7.81 3.08,-10.45c2.06,-2.63333 4.83333,-3.95 8.32,-3.95v0c3.09333,0 5.5,1.05667 7.22,3.17v0l0.31,-2.65h6.82v27.24c0,2.46 -0.56,4.60333 -1.68,6.43c-1.12,1.82 -2.69333,3.20667 -4.72,4.16c-2.03333,0.96 -4.41333,1.44 -7.14,1.44v0c-2.06667,0 -4.08,-0.41333 -6.04,-1.24c-1.96,-0.82667 -3.44333,-1.89 -4.45,-3.19v0l3.33,-4.58c1.87333,2.1 4.14667,3.15 6.82,3.15v0c2,0 3.55333,-0.53333 4.66,-1.6c1.11333,-1.07333 1.67,-2.59 1.67,-4.55v0v-1.51c-1.73333,1.96 -4.01667,2.94 -6.85,2.94v0c-3.38667,0 -6.12333,-1.32333 -8.21,-3.97c-2.09333,-2.64667 -3.14,-6.15667 -3.14,-10.53zM78.70833,217.76667v0c0,2.55333 0.51333,4.55667 1.54,6.01c1.02667,1.44667 2.43333,2.17 4.22,2.17v0c2.29333,0 3.93333,-0.86 4.92,-2.58v0v-11.85c-1.00667,-1.71333 -2.63,-2.57 -4.87,-2.57v0c-1.80667,0 -3.22667,0.73667 -4.26,2.21c-1.03333,1.47333 -1.55,3.67667 -1.55,6.61zM110.66833,191.51667v40h-7.56v-40zM129.82833,232.03667v0c-4.12667,0 -7.49,-1.26667 -10.09,-3.8c-2.59333,-2.53333 -3.89,-5.91 -3.89,-10.13v0v-0.73c0,-2.82667 0.54667,-5.35667 1.64,-7.59c1.09333,-2.22667 2.64333,-3.94333 4.65,-5.15c2.00667,-1.20667 4.29333,-1.81 6.86,-1.81v0c3.85333,0 6.88667,1.21333 9.1,3.64c2.21333,2.43333 3.32,5.88 3.32,10.34v0v3.07h-17.94c0.24,1.84 0.97333,3.31667 2.2,4.43c1.22667,1.11333 2.77667,1.67 4.65,1.67v0c2.9,0 5.16333,-1.05 6.79,-3.15v0l3.7,4.14c-1.12667,1.59333 -2.65333,2.83667 -4.58,3.73c-1.92667,0.89333 -4.06333,1.34 -6.41,1.34zM128.96833,208.91667v0c-1.49333,0 -2.70333,0.50333 -3.63,1.51c-0.92667,1.00667 -1.52,2.44667 -1.78,4.32v0h10.47v-0.6c-0.04,-1.66667 -0.49333,-2.95333 -1.36,-3.86c-0.86667,-0.91333 -2.1,-1.37 -3.7,-1.37zM170.68833,225.97667v0c1.39333,0 2.52333,-0.38333 3.39,-1.15c0.86667,-0.76667 1.31667,-1.78333 1.35,-3.05v0h7.06c-0.02,1.91333 -0.54,3.66333 -1.56,5.25c-1.02667,1.58667 -2.43,2.82 -4.21,3.7c-1.78,0.87333 -3.74667,1.31 -5.9,1.31v0c-4.02667,0 -7.20333,-1.28 -9.53,-3.84c-2.32667,-2.56 -3.49,-6.09667 -3.49,-10.61v0v-0.49c0,-4.34 1.15667,-7.80333 3.47,-10.39c2.30667,-2.58667 5.47333,-3.88 9.5,-3.88v0c3.52667,0 6.35333,1 8.48,3c2.12667,2.00667 3.20667,4.67667 3.24,8.01v0h-7.06c-0.03333,-1.46 -0.48333,-2.64333 -1.35,-3.55c-0.86667,-0.91333 -2.01333,-1.37 -3.44,-1.37v0c-1.75333,0 -3.07667,0.63667 -3.97,1.91c-0.89333,1.28 -1.34,3.35 -1.34,6.21v0v0.79c0,2.89333 0.44333,4.97667 1.33,6.25c0.88,1.26667 2.22333,1.9 4.03,1.9zM185.60833,217.50667v-0.34c0,-2.79333 0.54,-5.28333 1.62,-7.47c1.07333,-2.18667 2.62333,-3.88 4.65,-5.08c2.02,-1.19333 4.36667,-1.79 7.04,-1.79v0c3.8,0 6.90333,1.16 9.31,3.48c2.40667,2.32667 3.75,5.48667 4.03,9.48v0l0.05,1.93c0,4.32667 -1.20667,7.79333 -3.62,10.4c-2.41333,2.61333 -5.65333,3.92 -9.72,3.92c-4.06,0 -7.3,-1.3 -9.72,-3.9c-2.42667,-2.60667 -3.64,-6.15 -3.64,-10.63zM193.13833,217.71667v0c0,2.67333 0.50333,4.71667 1.51,6.13c1.00667,1.42 2.44667,2.13 4.32,2.13v0c1.82667,0 3.25,-0.7 4.27,-2.1c1.02667,-1.4 1.54,-3.63667 1.54,-6.71v0c0,-2.62 -0.51333,-4.65 -1.54,-6.09c-1.02,-1.44 -2.46,-2.16 -4.32,-2.16v0c-1.84,0 -3.26333,0.71667 -4.27,2.15c-1.00667,1.43333 -1.51,3.65 -1.51,6.65zM224.88833,191.51667v40h-7.56v-40zM255.01833,231.51667h-7.61c-0.34667,-0.67333 -0.59667,-1.51333 -0.75,-2.52v0c-1.82667,2.02667 -4.19667,3.04 -7.11,3.04v0c-2.76,0 -5.05,-0.79667 -6.87,-2.39c-1.81333,-1.6 -2.72,-3.61333 -2.72,-6.04v0c0,-2.98667 1.10667,-5.28 3.32,-6.88c2.21333,-1.59333 5.41333,-2.4 9.6,-2.42v0h3.46v-1.61c0,-1.30667 -0.33333,-2.35 -1,-3.13c-0.66667,-0.78 -1.72,-1.17 -3.16,-1.17v0c-1.26667,0 -2.26,0.30333 -2.98,0.91c-0.72667,0.60667 -1.09,1.44 -1.09,2.5v0h-7.52c0,-1.63333 0.50333,-3.14333 1.51,-4.53c1.00667,-1.38667 2.43,-2.47667 4.27,-3.27c1.84,-0.78667 3.90667,-1.18 6.2,-1.18v0c3.47333,0 6.23,0.87 8.27,2.61c2.04,1.74667 3.06,4.2 3.06,7.36v0v12.21c0.01333,2.67333 0.38667,4.69667 1.12,6.07v0zM241.18833,226.28667v0c1.10667,0 2.13,-0.24667 3.07,-0.74c0.94,-0.5 1.63333,-1.16667 2.08,-2v0v-4.84h-2.81c-3.76667,0 -5.77,1.30333 -6.01,3.91v0l-0.03,0.44c0,0.94 0.33,1.71333 0.99,2.32c0.66,0.60667 1.56333,0.91 2.71,0.91zM285.06833,217.27667v0.42c0,4.51333 -0.96333,8.03333 -2.89,10.56c-1.92667,2.52 -4.62,3.78 -8.08,3.78v0c-3.05333,0 -5.49,-1.17 -7.31,-3.51v0l-0.34,2.99h-6.77v-40h7.52v14.35c1.74,-2.02667 4.02333,-3.04 6.85,-3.04v0c3.44,0 6.13667,1.26 8.09,3.78c1.95333,2.52667 2.93,6.08333 2.93,10.67zM277.53833,217.14667v0c0,-2.84667 -0.45,-4.92667 -1.35,-6.24c-0.90667,-1.30667 -2.25333,-1.96 -4.04,-1.96v0c-2.39333,0 -4.04333,0.98 -4.95,2.94v0v11.12c0.92,1.98 2.58667,2.97 5,2.97v0c2.43333,0 4.03,-1.2 4.79,-3.6v0c0.36667,-1.14667 0.55,-2.89 0.55,-5.23z"></path></g></g></g></svg>