<?xml version="1.0" standalone="no"?>
<!DOCTYPE svg PUBLIC "-//W3C//DTD SVG 20010904//EN"
 "http://www.w3.org/TR/2001/REC-SVG-20010904/DTD/svg10.dtd">
<svg version="1.0" xmlns="http://www.w3.org/2000/svg"
 width="500.000000pt" height="500.000000pt" viewBox="0 0 500.000000 500.000000"
 preserveAspectRatio="xMidYMid meet">

<g transform="translate(0.000000,500.000000) scale(0.100000,-0.100000)"
fill="#000000" stroke="none">
<path d="M2994 3200 c-193 -27 -322 -107 -387 -239 -31 -63 -32 -70 -32 -186
0 -109 3 -125 27 -178 35 -74 107 -144 193 -186 41 -20 140 -51 254 -80 262
-65 311 -99 311 -215 0 -125 -80 -188 -240 -188 -146 0 -253 46 -354 152 -32
33 -64 60 -71 60 -8 0 -50 -44 -94 -97 l-80 -97 17 -29 c47 -81 196 -178 332
-217 104 -30 316 -38 419 -16 265 56 399 243 370 514 -9 84 -43 163 -99 225
-66 75 -168 118 -391 168 -101 22 -202 50 -224 62 -55 30 -85 79 -85 136 0 60
27 104 82 133 38 20 57 23 168 23 119 0 128 -1 190 -31 36 -17 82 -45 102 -63
20 -17 42 -31 49 -31 8 0 46 46 86 101 l72 101 -52 45 c-58 52 -141 93 -237
117 -80 19 -244 28 -326 16z"/>
<path d="M1980 2666 c0 -548 -3 -599 -43 -657 -43 -63 -69 -74 -170 -74 -72 0
-101 4 -132 20 -51 25 -118 92 -145 145 -12 23 -27 40 -34 38 -11 -3 -149
-161 -170 -196 -13 -21 59 -117 125 -166 108 -82 227 -112 407 -103 183 8 295
60 369 170 87 129 95 205 91 842 l-3 500 -147 3 -148 3 0 -525z"/>
</g>
</svg>
