<svg xmlns="http://www.w3.org/2000/svg" xmlns:xlink="http://www.w3.org/1999/xlink" viewBox="0,0,256,256" width="100px" height="100px" fill-rule="nonzero"><g transform="translate(51.2,51.2) scale(0.6,0.6)"><g fill="#212121" fill-rule="nonzero" stroke="none" stroke-width="1" stroke-linecap="butt" stroke-linejoin="miter" stroke-miterlimit="10" stroke-dasharray="" stroke-dashoffset="0" font-family="none" font-weight="none" font-size="none" text-anchor="none" style="mix-blend-mode: normal"><path d="M-85.33333,341.33333v-426.66667h426.66667v426.66667z" id="bgRectangle"></path></g><g fill="none" fill-rule="nonzero" stroke="none" stroke-width="1" stroke-linecap="butt" stroke-linejoin="miter" stroke-miterlimit="10" stroke-dasharray="" stroke-dashoffset="0" font-family="none" font-weight="none" font-size="none" text-anchor="none" style="mix-blend-mode: normal"><g transform="scale(5.33333,5.33333)"><path d="M44.083,29.79c-0.183,-0.829 -0.935,-1.796 -2.452,-1.796c-0.31,0 -0.649,0.039 -1.035,0.119c-0.708,0.146 -1.311,0.217 -1.842,0.241c4.133,-7.04 6.816,-16.819 4.159,-20.214c-3.501,-4.473 -8.214,-5.141 -10.711,-5.141l-0.235,0.001c-0.929,0.015 -1.893,0.129 -2.863,0.339l-3.583,0.774c-0.488,-0.061 -0.985,-0.104 -1.503,-0.113h-0.03h-0.016l-0.152,-0.001c-1.593,0 -3.046,0.338 -4.341,0.973l-1.251,-0.493c-1.72,-0.678 -4.308,-1.485 -6.868,-1.485c-0.144,0 -0.287,0.003 -0.431,0.008c-2.522,0.091 -4.688,1.048 -6.265,2.767c-1.968,2.146 -2.864,5.285 -2.661,9.331c0.01,0.209 2.458,20.9 9.397,20.9h0.025l0.064,-0.001c0.901,-0.022 1.76,-0.384 2.563,-1.077c0.613,0.46 1.406,0.732 2.145,0.84c0.488,0.115 1.366,0.278 2.418,0.278c1.284,0 2.442,-0.263 3.44,-0.738c-0.001,0.88 -0.006,1.994 -0.016,3.418l-0.001,0.075l0.005,0.075c0.097,1.419 0.342,2.698 0.711,3.701c1.051,2.859 2.866,4.434 5.111,4.434c0.093,0 0.188,-0.003 0.284,-0.009c1.846,-0.114 3.717,-1.151 5.004,-2.772c1.393,-1.755 1.715,-3.607 1.839,-5.026l0.008,-0.087v-0.088v-4.079l0.103,0.01l0.436,0.038l0.042,0.004l0.042,0.002c0.124,0.006 0.252,0.008 0.381,0.008c1.507,0 3.362,-0.391 4.616,-0.974c1.199,-0.556 3.939,-2.084 3.463,-4.242z" fill="#ffffff"></path><path d="M33,34c0,-0.205 0.012,-0.376 0.018,-0.565c-0.01,-0.251 -0.018,-0.435 -0.018,-0.435c0,0 0.012,-0.009 0.032,-0.022c0.149,-2.673 0.886,-3.703 1.675,-4.29c-0.11,-0.153 -0.237,-0.318 -0.356,-0.475c-0.333,-0.437 -0.748,-0.979 -1.192,-1.674l-0.082,-0.158c-0.067,-0.164 -0.229,-0.447 -0.435,-0.819c-1.183,-2.14 -3.645,-6.592 -1.96,-9.404c0.738,-1.232 2.122,-1.942 4.121,-2.117c-0.817,-2.323 -3.878,-7.926 -10.818,-8.041c-0.002,0 -0.004,0 -0.006,0c-6.041,-0.098 -8.026,5.392 -8.672,8.672c0.89,-0.377 1.906,-0.606 2.836,-0.606c0.014,0 0.029,0 0.043,0c2.29,0.017 3.865,1.239 4.323,3.354c0.335,1.552 0.496,2.91 0.492,4.153c-0.01,2.719 -0.558,4.149 -1.042,5.411l-0.154,0.408c-0.124,0.334 -0.255,0.645 -0.379,0.937c-0.126,0.298 -0.237,0.563 -0.318,0.802c0.484,0.11 0.864,0.265 1.125,0.38l0.151,0.066c0.047,0.02 0.094,0.043 0.137,0.069c0.848,0.516 1.376,1.309 1.489,2.233c0.061,0.498 0.051,3.893 0.03,6.855c0.087,1.285 0.305,2.364 0.593,3.146c0.409,1.114 1.431,3.241 3.394,3.119c1.37,-0.085 2.687,-0.919 3.561,-2.019c0.938,-1.181 1.284,-2.487 1.414,-3.958v-5.022z" fill="#0277bd"></path><path d="M15.114,28.917c-1.613,-1.683 -2.399,-3.947 -2.104,-6.056c0.285,-2.035 0.124,-4.027 0.037,-5.098c-0.029,-0.357 -0.048,-0.623 -0.047,-0.77c0,-0.008 0.002,-0.015 0.003,-0.023c0,-0.004 -0.002,-0.007 -0.002,-0.011c0.121,-3.021 1.286,-7.787 4.493,-10.62c-1.562,-0.615 -4.106,-1.426 -6.494,-1.339c-3.742,0.136 -7.364,2.724 -7,10c0.137,2.73 3.222,19.103 7.44,19c0.603,-0.015 1.229,-0.402 1.872,-1.176c1.017,-1.223 2.005,-2.332 2.708,-3.104c-0.315,-0.239 -0.619,-0.503 -0.906,-0.803zM37.023,14.731c0.015,0.154 0.002,0.286 -0.022,0.408c0.031,0.92 -0.068,1.813 -0.169,2.677c-0.074,0.636 -0.15,1.293 -0.171,1.952c-0.021,0.645 0.07,1.282 0.166,1.956c0.225,1.578 0.459,3.359 -0.765,5.437c0.225,0.296 0.423,0.571 0.581,0.837c4.61,-7.475 6.468,-16.361 4.695,-18.626c-2.683,-3.428 -6.397,-4.42 -9.339,-4.372c-0.921,0.015 -1.758,0.139 -2.473,0.294c5.076,2.46 7.337,7.732 7.497,9.437zM41,30.071c-2.665,0.55 -3.947,0.257 -4.569,-0.126c-0.1,0.072 -0.2,0.133 -0.293,0.19c-0.372,0.225 -0.961,0.583 -1.105,2.782c0.083,0.016 0.156,0.025 0.246,0.044l0.435,0.039c1.32,0.06 3.049,-0.31 4.063,-0.781c2.185,-1.014 3.376,-2.592 1.223,-2.148zM22.023,32.119c-0.037,-0.298 -0.198,-0.539 -0.492,-0.732l-0.108,-0.047c-0.361,-0.159 -0.77,-0.34 -1.423,-0.34h-0.004c-0.127,0.01 -0.253,0.019 -0.38,0.019c-0.052,0 -0.103,-0.007 -0.155,-0.009c-0.474,0.365 -1.148,0.647 -2.816,0.99c-2.98,0.759 -1.221,1.655 -0.078,1.794c1.106,0.277 3.735,0.614 5.481,-0.809c-0.005,-0.448 -0.013,-0.756 -0.025,-0.866z" fill="#0277bd"></path><path d="M20.681,18.501c-0.292,0.302 -0.753,0.566 -1.262,0.484c-0.828,-0.134 -1.463,-1.133 -1.417,-1.508v0c0.044,-0.374 0.751,-0.569 1.578,-0.435c0.287,0.047 0.548,0.128 0.768,0.228c-0.32,-0.688 -0.899,-1.085 -1.782,-1.182c-1.565,-0.174 -3.226,0.644 -3.56,1.097c0.007,0.11 0.02,0.251 0.033,0.417c0.093,1.147 0.265,3.284 -0.05,5.537c-0.208,1.485 0.393,3.169 1.567,4.395c0.757,0.79 1.641,1.29 2.513,1.438c0.111,-0.478 0.309,-0.944 0.513,-1.425c0.113,-0.265 0.233,-0.547 0.346,-0.852l0.162,-0.427c0.443,-1.155 0.9,-2.35 0.909,-4.703c0.004,-0.905 -0.107,-1.938 -0.318,-3.064zM34.847,22.007c-0.104,-0.729 -0.211,-1.484 -0.185,-2.303c0.023,-0.742 0.105,-1.442 0.184,-2.119c0.062,-0.533 0.11,-1.045 0.138,-1.55c-1.289,0.107 -2.145,0.479 -2.551,1.108c0.168,-0.057 0.358,-0.102 0.568,-0.129c0.892,-0.116 1.543,0.141 1.618,0.637c0.055,0.363 -0.253,0.705 -0.388,0.836c-0.277,0.269 -0.626,0.442 -0.981,0.488c-0.064,0.008 -0.129,0.012 -0.192,0.012c-0.353,0 -0.69,-0.121 -0.949,-0.3c0.112,1.973 1.567,4.612 2.283,5.907c0.153,0.277 0.271,0.498 0.369,0.688c0.393,-1.119 0.248,-2.139 0.086,-3.275z" fill="#0277bd"></path></g></g><g fill="#0277bd" fill-rule="nonzero" stroke="none" stroke-width="1" stroke-linecap="butt" stroke-linejoin="miter" stroke-miterlimit="10" stroke-dasharray="" stroke-dashoffset="0" font-family="none" font-weight="none" font-size="none" text-anchor="none" style="mix-blend-mode: normal"><g><path d="M10.24333,275.505h-6.85v13.36h-7.81v-37.91h14.79c2.84667,0 5.35,0.52 7.51,1.56c2.16,1.04 3.82333,2.52 4.99,4.44c1.16,1.92 1.74,4.10333 1.74,6.55v0c0,3.71333 -1.27,6.64333 -3.81,8.79c-2.54667,2.14 -6.06667,3.21 -10.56,3.21zM3.39333,257.275v11.91h6.98c2.06667,0 3.64,-0.48667 4.72,-1.46c1.08667,-0.97333 1.63,-2.36333 1.63,-4.17v0c0,-1.86 -0.54667,-3.36 -1.64,-4.5c-1.09333,-1.14667 -2.60333,-1.74 -4.53,-1.78v0zM27.97333,274.855v-0.34c0,-2.79333 0.54,-5.28333 1.62,-7.47c1.07333,-2.18667 2.62,-3.88 4.64,-5.08c2.02667,-1.19333 4.37667,-1.79 7.05,-1.79v0c3.8,0 6.90333,1.16 9.31,3.48c2.40667,2.32667 3.74667,5.48667 4.02,9.48v0l0.05,1.93c0,4.32667 -1.20667,7.79333 -3.62,10.4c-2.41333,2.61333 -5.65,3.92 -9.71,3.92c-4.06,0 -7.30333,-1.3 -9.73,-3.9c-2.42,-2.60667 -3.63,-6.15 -3.63,-10.63zM35.50333,275.065v0c0,2.67333 0.50333,4.71667 1.51,6.13c1.00667,1.42 2.44667,2.13 4.32,2.13v0c1.82667,0 3.25,-0.7 4.27,-2.1c1.02667,-1.4 1.54,-3.63667 1.54,-6.71v0c0,-2.62 -0.51333,-4.65 -1.54,-6.09c-1.02,-1.44 -2.46,-2.16 -4.32,-2.16v0c-1.84,0 -3.26333,0.71667 -4.27,2.15c-1.00667,1.43333 -1.51,3.65 -1.51,6.65zM74.56333,281.085v0c0,-0.92 -0.45667,-1.64667 -1.37,-2.18c-0.90667,-0.52667 -2.37,-1 -4.39,-1.42v0c-6.7,-1.40667 -10.05,-4.25333 -10.05,-8.54v0c0,-2.5 1.03667,-4.58667 3.11,-6.26c2.08,-1.67333 4.79333,-2.51 8.14,-2.51v0c3.58,0 6.44,0.84 8.58,2.52c2.14667,1.68667 3.22,3.87333 3.22,6.56v0h-7.53c0,-1.07333 -0.34667,-1.96333 -1.04,-2.67c-0.69333,-0.7 -1.77667,-1.05 -3.25,-1.05v0c-1.26667,0 -2.25,0.28667 -2.95,0.86c-0.69333,0.57333 -1.04,1.30333 -1.04,2.19v0c0,0.83333 0.39667,1.50667 1.19,2.02c0.78667,0.50667 2.11667,0.94667 3.99,1.32c1.88,0.37333 3.46,0.79667 4.74,1.27v0c3.98,1.45333 5.97,3.97667 5.97,7.57v0c0,2.57333 -1.10333,4.65333 -3.31,6.24c-2.20667,1.58667 -5.05333,2.38 -8.54,2.38v0c-2.36,0 -4.45667,-0.42 -6.29,-1.26c-1.83333,-0.84 -3.27,-1.99333 -4.31,-3.46c-1.04,-1.46667 -1.56,-3.05 -1.56,-4.75v0h7.13c0.07333,1.33333 0.57,2.35667 1.49,3.07c0.92,0.71333 2.15,1.07 3.69,1.07v0c1.44667,0 2.53667,-0.27333 3.27,-0.82c0.74,-0.55333 1.11,-1.27 1.11,-2.15zM88.21333,253.765h7.52v6.93h4.82v5.52h-4.82v14.06c0,1.04 0.2,1.78667 0.6,2.24c0.4,0.45333 1.16333,0.68 2.29,0.68v0c0.83333,0 1.57333,-0.06333 2.22,-0.19v0v5.71c-1.48,0.44667 -3,0.67 -4.56,0.67v0c-5.28,0 -7.97,-2.66333 -8.07,-7.99v0v-15.18h-4.12v-5.52h4.12zM103.65333,274.885v-0.31c0,-4.32667 1.02667,-7.81 3.08,-10.45c2.06,-2.63333 4.83333,-3.95 8.32,-3.95v0c3.09333,0 5.5,1.05667 7.22,3.17v0l0.31,-2.65h6.82v27.24c0,2.46 -0.56,4.60333 -1.68,6.43c-1.12,1.82 -2.69333,3.20667 -4.72,4.16c-2.03333,0.96 -4.41333,1.44 -7.14,1.44v0c-2.06667,0 -4.08,-0.41333 -6.04,-1.24c-1.96,-0.82667 -3.44333,-1.89 -4.45,-3.19v0l3.33,-4.58c1.87333,2.1 4.14667,3.15 6.82,3.15v0c2,0 3.55333,-0.53333 4.66,-1.6c1.11333,-1.07333 1.67,-2.59 1.67,-4.55v0v-1.51c-1.73333,1.96 -4.01667,2.94 -6.85,2.94v0c-3.38667,0 -6.12333,-1.32333 -8.21,-3.97c-2.09333,-2.64667 -3.14,-6.15667 -3.14,-10.53zM111.17333,275.115v0c0,2.55333 0.51333,4.55667 1.54,6.01c1.02667,1.44667 2.43333,2.17 4.22,2.17v0c2.29333,0 3.93333,-0.86 4.92,-2.58v0v-11.85c-1.00667,-1.71333 -2.63,-2.57 -4.87,-2.57v0c-1.80667,0 -3.22667,0.73667 -4.26,2.21c-1.03333,1.47333 -1.55,3.67667 -1.55,6.61zM151.12333,260.505l-0.1,7.24c-1.02667,-0.13333 -1.93,-0.2 -2.71,-0.2v0c-2.84667,0 -4.71333,0.96333 -5.6,2.89v0v18.43h-7.53v-28.17h7.11l0.21,3.36c1.51333,-2.58667 3.60667,-3.88 6.28,-3.88v0c0.83333,0 1.61333,0.11 2.34,0.33zM167.11333,289.385v0c-4.13333,0 -7.49667,-1.26667 -10.09,-3.8c-2.59333,-2.53333 -3.89,-5.91 -3.89,-10.13v0v-0.73c0,-2.82667 0.54667,-5.35667 1.64,-7.59c1.09333,-2.22667 2.64333,-3.94333 4.65,-5.15c2,-1.20667 4.28667,-1.81 6.86,-1.81v0c3.85333,0 6.88667,1.21333 9.1,3.64c2.21333,2.43333 3.32,5.88 3.32,10.34v0v3.07h-17.94c0.24,1.84 0.97333,3.31667 2.2,4.43c1.22,1.11333 2.77,1.67 4.65,1.67v0c2.9,0 5.16333,-1.05 6.79,-3.15v0l3.7,4.14c-1.12667,1.59333 -2.65333,2.83667 -4.58,3.73c-1.92667,0.89333 -4.06333,1.34 -6.41,1.34zM166.25333,266.265v0c-1.49333,0 -2.70333,0.50333 -3.63,1.51c-0.92667,1.00667 -1.52,2.44667 -1.78,4.32v0h10.46v-0.6c-0.03333,-1.66667 -0.48333,-2.95333 -1.35,-3.86c-0.86667,-0.91333 -2.1,-1.37 -3.7,-1.37zM203.13333,278.925v0c0,-1.48 -0.52,-2.61333 -1.56,-3.4c-1.04667,-0.79333 -2.92333,-1.62667 -5.63,-2.5c-2.70667,-0.88 -4.85,-1.74333 -6.43,-2.59v0c-4.30667,-2.32667 -6.46,-5.46333 -6.46,-9.41v0c0,-2.04667 0.57667,-3.87333 1.73,-5.48c1.15333,-1.60667 2.81333,-2.86 4.98,-3.76c2.16,-0.9 4.58333,-1.35 7.27,-1.35v0c2.71333,0 5.12667,0.49 7.24,1.47c2.12,0.98 3.76667,2.36333 4.94,4.15c1.17333,1.78667 1.76,3.81667 1.76,6.09v0h-7.82c0,-1.73333 -0.54667,-3.08 -1.64,-4.04c-1.09333,-0.96667 -2.63,-1.45 -4.61,-1.45v0c-1.90667,0 -3.39,0.40333 -4.45,1.21c-1.06,0.80667 -1.59,1.87 -1.59,3.19v0c0,1.23333 0.62,2.26667 1.86,3.1c1.24667,0.83333 3.07667,1.61333 5.49,2.34v0c4.44,1.34 7.67667,3 9.71,4.98c2.03333,1.98 3.05,4.44333 3.05,7.39v0c0,3.28667 -1.24333,5.86 -3.73,7.72c-2.48,1.86667 -5.82,2.8 -10.02,2.8v0c-2.92,0 -5.57667,-0.53333 -7.97,-1.6c-2.4,-1.06667 -4.22667,-2.53 -5.48,-4.39c-1.26,-1.85333 -1.89,-4.00333 -1.89,-6.45v0h7.84c0,4.18 2.5,6.27 7.5,6.27v0c1.85333,0 3.30333,-0.37667 4.35,-1.13c1.04,-0.75333 1.56,-1.80667 1.56,-3.16zM247.35333,269.075v1.69c0,3.54667 -0.57333,6.62667 -1.72,9.24c-1.14667,2.61333 -2.73667,4.71 -4.77,6.29v0l6.3,4.94l-4.97,4.4l-8.07,-6.48c-0.92,0.15333 -1.87667,0.23 -2.87,0.23v0c-3.14,0 -5.94333,-0.75333 -8.41,-2.26c-2.46667,-1.51333 -4.37667,-3.67 -5.73,-6.47c-1.35333,-2.80667 -2.04,-6.03333 -2.06,-9.68v0v-1.87c0,-3.73333 0.67333,-7.02 2.02,-9.86c1.34667,-2.84 3.25,-5.02 5.71,-6.54c2.45333,-1.51333 5.26,-2.27 8.42,-2.27c3.16,0 5.96667,0.75667 8.42,2.27c2.46,1.52 4.36333,3.7 5.71,6.54c1.34667,2.84 2.02,6.11667 2.02,9.83zM239.43333,270.895v-1.84c0,-3.98 -0.71333,-7.00333 -2.14,-9.07c-1.42,-2.06667 -3.45,-3.1 -6.09,-3.1v0c-2.62,0 -4.64333,1.02 -6.07,3.06c-1.42,2.04 -2.14,5.03333 -2.16,8.98v0v1.84c0,3.87333 0.71333,6.87667 2.14,9.01c1.42,2.14 3.46667,3.21 6.14,3.21v0c2.62,0 4.63333,-1.03 6.04,-3.09c1.40667,-2.05333 2.12,-5.05333 2.14,-9zM260.89333,250.955v31.64h16.59v6.27h-24.4v-37.91z"></path></g></g></g></svg>