<svg xmlns="http://www.w3.org/2000/svg" xmlns:xlink="http://www.w3.org/1999/xlink" viewBox="0,0,256,256" width="100px" height="100px" fill-rule="nonzero"><g transform="translate(25.6,25.6) scale(0.8,0.8)"><g fill="#38bdf8" fill-rule="nonzero" stroke="none" stroke-width="1" stroke-linecap="butt" stroke-linejoin="miter" stroke-miterlimit="10" stroke-dasharray="" stroke-dashoffset="0" font-family="none" font-weight="none" font-size="none" text-anchor="none" style="mix-blend-mode: normal"><g transform="translate(1.6,-27.20267) scale(5.33333,5.33333)"><path d="M24,9.604c-6.4,0 -10.4,3.199 -12,9.597c2.4,-3.199 5.2,-4.398 8.4,-3.599c1.826,0.456 3.131,1.781 4.576,3.247c2.352,2.387 5.075,5.151 11.024,5.151c6.4,0 10.4,-3.199 12,-9.598c-2.4,3.199 -5.2,4.399 -8.4,3.6c-1.825,-0.456 -3.13,-1.781 -4.575,-3.247c-2.353,-2.388 -5.077,-5.151 -11.025,-5.151zM12,24c-6.4,0 -10.4,3.199 -12,9.598c2.4,-3.199 5.2,-4.399 8.4,-3.599c1.825,0.457 3.13,1.781 4.575,3.246c2.353,2.388 5.077,5.152 11.025,5.152c6.4,0 10.4,-3.199 12,-9.598c-2.4,3.199 -5.2,4.399 -8.4,3.599c-1.826,-0.456 -3.131,-1.781 -4.576,-3.246c-2.352,-2.388 -5.075,-5.152 -11.024,-5.152z"></path></g></g><g fill="#38bdf8" fill-rule="nonzero" stroke="none" stroke-width="1" stroke-linecap="butt" stroke-linejoin="miter" stroke-miterlimit="10" stroke-dasharray="" stroke-dashoffset="0" font-family="none" font-weight="none" font-size="none" text-anchor="none" style="mix-blend-mode: normal"><g><path d="M4.225,197.97333h7.52v6.93h4.82v5.52h-4.82v14.06c0,1.04 0.2,1.78667 0.6,2.24c0.4,0.45333 1.16333,0.68 2.29,0.68v0c0.83333,0 1.57333,-0.06333 2.22,-0.19v0v5.71c-1.48,0.44667 -3,0.67 -4.56,0.67v0c-5.28,0 -7.97,-2.66333 -8.07,-7.99v0v-15.18h-4.12v-5.52h4.12zM44.685,233.07333h-7.6c-0.34667,-0.67333 -0.6,-1.51333 -0.76,-2.52v0c-1.82,2.02667 -4.18667,3.04 -7.1,3.04v0c-2.76667,0 -5.05667,-0.79667 -6.87,-2.39c-1.81333,-1.6 -2.72,-3.61333 -2.72,-6.04v0c0,-2.98667 1.10667,-5.28 3.32,-6.88c2.21333,-1.59333 5.41333,-2.4 9.6,-2.42v0h3.46v-1.61c0,-1.30667 -0.33333,-2.35 -1,-3.13c-0.66667,-0.78 -1.72,-1.17 -3.16,-1.17v0c-1.27333,0 -2.27,0.30333 -2.99,0.91c-0.72,0.60667 -1.08,1.44 -1.08,2.5v0h-7.52c0,-1.63333 0.50333,-3.14333 1.51,-4.53c1.00667,-1.38667 2.43,-2.47667 4.27,-3.27c1.84,-0.78667 3.90667,-1.18 6.2,-1.18v0c3.46667,0 6.22,0.87 8.26,2.61c2.04,1.74667 3.06,4.2 3.06,7.36v0v12.21c0.02,2.67333 0.39333,4.69667 1.12,6.07v0zM30.865,227.84333v0c1.10667,0 2.13,-0.24667 3.07,-0.74c0.93333,-0.5 1.62667,-1.16667 2.08,-2v0v-4.84h-2.81c-3.76667,0 -5.77333,1.30333 -6.02,3.91v0l-0.02,0.44c0,0.94 0.33,1.71333 0.99,2.32c0.66,0.60667 1.56333,0.91 2.71,0.91zM57.295,204.90333v28.17h-7.55v-28.17zM49.295,197.60333v0c0,-1.12667 0.38,-2.05333 1.14,-2.78c0.75333,-0.73333 1.78,-1.1 3.08,-1.1v0c1.28667,0 2.31,0.36667 3.07,1.1c0.76667,0.72667 1.15,1.65333 1.15,2.78v0c0,1.14667 -0.38667,2.08667 -1.16,2.82c-0.77333,0.72667 -1.79333,1.09 -3.06,1.09c-1.26667,0 -2.28667,-0.36333 -3.06,-1.09c-0.77333,-0.73333 -1.16,-1.67333 -1.16,-2.82zM71.435,193.07333v40h-7.55v-40zM97.005,204.90333l5.13,17.94l3.7,-17.94h7.27l-7.19,28.17h-6.3l-5.34,-17.73l-5.34,17.73h-6.28l-7.18,-28.17h7.26l3.67,17.91l5.16,-17.91zM124.765,204.90333v28.17h-7.55v-28.17zM116.775,197.60333v0c0,-1.12667 0.37667,-2.05333 1.13,-2.78c0.75333,-0.73333 1.78333,-1.1 3.09,-1.1v0c1.28,0 2.30333,0.36667 3.07,1.1c0.76,0.72667 1.14,1.65333 1.14,2.78v0c0,1.14667 -0.38333,2.08667 -1.15,2.82c-0.77333,0.72667 -1.79333,1.09 -3.06,1.09c-1.27333,0 -2.29333,-0.36333 -3.06,-1.09c-0.77333,-0.73333 -1.16,-1.67333 -1.16,-2.82zM130.805,204.90333h7.09l0.23,3.25c2.01333,-2.51333 4.71333,-3.77 8.1,-3.77v0c2.98667,0 5.21,0.87667 6.67,2.63c1.45333,1.75333 2.2,4.37333 2.24,7.86v0v18.2h-7.53v-18.02c0,-1.59333 -0.34667,-2.75 -1.04,-3.47c-0.69333,-0.72 -1.84667,-1.08 -3.46,-1.08v0c-2.12,0 -3.71,0.9 -4.77,2.7v0v19.87h-7.53zM159.665,218.78333v0c0,-4.39333 0.98333,-7.89333 2.95,-10.5c1.97333,-2.6 4.67,-3.9 8.09,-3.9v0c2.74,0 5.00667,1.02333 6.8,3.07v0v-14.38h7.55v40h-6.8l-0.36,-2.99c-1.88,2.34 -4.29333,3.51 -7.24,3.51v0c-3.32,0 -5.98,-1.30667 -7.98,-3.92c-2.00667,-2.60667 -3.01,-6.23667 -3.01,-10.89zM167.185,219.32333v0c0,2.64 0.46,4.66333 1.38,6.07c0.92,1.40667 2.25667,2.11 4.01,2.11v0c2.32667,0 3.97,-0.98 4.93,-2.94v0v-11.12c-0.94,-1.96 -2.56333,-2.94 -4.87,-2.94v0c-3.63333,0 -5.45,2.94 -5.45,8.82zM202.605,227.53333v0c1.38667,0 2.51667,-0.38333 3.39,-1.15c0.86667,-0.76667 1.31667,-1.78333 1.35,-3.05v0h7.06c-0.02,1.91333 -0.54333,3.66333 -1.57,5.25c-1.02,1.58667 -2.42,2.82 -4.2,3.7c-1.78,0.87333 -3.74667,1.31 -5.9,1.31v0c-4.02667,0 -7.20333,-1.28 -9.53,-3.84c-2.32667,-2.56 -3.49,-6.09667 -3.49,-10.61v0v-0.49c0,-4.34 1.15333,-7.80333 3.46,-10.39c2.31333,-2.58667 5.48333,-3.88 9.51,-3.88v0c3.52667,0 6.35333,1 8.48,3c2.12667,2.00667 3.20667,4.67667 3.24,8.01v0h-7.06c-0.03333,-1.46 -0.48333,-2.64333 -1.35,-3.55c-0.87333,-0.91333 -2.02,-1.37 -3.44,-1.37v0c-1.75333,0 -3.07667,0.63667 -3.97,1.91c-0.89333,1.28 -1.34,3.35 -1.34,6.21v0v0.79c0,2.89333 0.44,4.97667 1.32,6.25c0.88667,1.26667 2.23333,1.9 4.04,1.9zM233.955,225.29333v0c0,-0.92 -0.45333,-1.64667 -1.36,-2.18c-0.91333,-0.52667 -2.37667,-1 -4.39,-1.42v0c-6.7,-1.40667 -10.05,-4.25333 -10.05,-8.54v0c0,-2.5 1.03667,-4.58667 3.11,-6.26c2.07333,-1.67333 4.78667,-2.51 8.14,-2.51v0c3.57333,0 6.43333,0.84 8.58,2.52c2.14,1.68667 3.21,3.87333 3.21,6.56v0h-7.52c0,-1.07333 -0.34667,-1.96333 -1.04,-2.67c-0.7,-0.7 -1.78667,-1.05 -3.26,-1.05v0c-1.26667,0 -2.24667,0.28667 -2.94,0.86c-0.69333,0.57333 -1.04,1.30333 -1.04,2.19v0c0,0.83333 0.39333,1.50667 1.18,2.02c0.79333,0.50667 2.12667,0.94667 4,1.32c1.87333,0.37333 3.45333,0.79667 4.74,1.27v0c3.97333,1.45333 5.96,3.97667 5.96,7.57v0c0,2.57333 -1.1,4.65333 -3.3,6.24c-2.20667,1.58667 -5.05667,2.38 -8.55,2.38v0c-2.36,0 -4.45667,-0.42 -6.29,-1.26c-1.82667,-0.84 -3.26333,-1.99333 -4.31,-3.46c-1.04,-1.46667 -1.56,-3.05 -1.56,-4.75v0h7.14c0.06667,1.33333 0.56,2.35667 1.48,3.07c0.92,0.71333 2.15333,1.07 3.7,1.07v0c1.44,0 2.53,-0.27333 3.27,-0.82c0.73333,-0.55333 1.1,-1.27 1.1,-2.15zM261.385,225.29333v0c0,-0.92 -0.45667,-1.64667 -1.37,-2.18c-0.91333,-0.52667 -2.37667,-1 -4.39,-1.42v0c-6.7,-1.40667 -10.05,-4.25333 -10.05,-8.54v0c0,-2.5 1.03667,-4.58667 3.11,-6.26c2.07333,-1.67333 4.78667,-2.51 8.14,-2.51v0c3.57333,0 6.43333,0.84 8.58,2.52c2.14667,1.68667 3.22,3.87333 3.22,6.56v0h-7.53c0,-1.07333 -0.34667,-1.96333 -1.04,-2.67c-0.69333,-0.7 -1.78,-1.05 -3.26,-1.05v0c-1.26667,0 -2.24667,0.28667 -2.94,0.86c-0.69333,0.57333 -1.04,1.30333 -1.04,2.19v0c0,0.83333 0.39333,1.50667 1.18,2.02c0.79333,0.50667 2.12667,0.94667 4,1.32c1.87333,0.37333 3.45333,0.79667 4.74,1.27v0c3.97333,1.45333 5.96,3.97667 5.96,7.57v0c0,2.57333 -1.1,4.65333 -3.3,6.24c-2.20667,1.58667 -5.05333,2.38 -8.54,2.38v0c-2.36667,0 -4.46333,-0.42 -6.29,-1.26c-1.83333,-0.84 -3.27,-1.99333 -4.31,-3.46c-1.04667,-1.46667 -1.57,-3.05 -1.57,-4.75v0h7.14c0.06667,1.33333 0.56,2.35667 1.48,3.07c0.92,0.71333 2.15333,1.07 3.7,1.07v0c1.44,0 2.53,-0.27333 3.27,-0.82c0.74,-0.55333 1.11,-1.27 1.11,-2.15z"></path></g></g></g></svg>